<svg width="30" height="30" viewBox="0 0 30 30" fill="none" xmlns="http://www.w3.org/2000/svg">
    <path
        d="M23.9974 15.5557V20.8336C24.0062 20.9571 23.985 21.0809 23.9356 21.1947C23.8609 21.3736 23.7213 21.5186 23.5442 21.6013L17.401 24.4681C16.6501 24.8183 15.8301 25 14.9997 25C14.1694 25 13.3493 24.8183 12.5985 24.4681L6.45529 21.6013C6.31031 21.5335 6.18959 21.4237 6.10907 21.2867C6.02854 21.1496 5.992 20.9916 6.00428 20.8336V15.5557M12.7503 7.22225C12.7503 7.81163 12.9873 8.37687 13.4091 8.79363C13.831 9.21038 14.4031 9.44451 14.9997 9.44451C15.5963 9.44451 16.1685 9.21038 16.5903 8.79363C17.0122 8.37687 17.2492 7.81163 17.2492 7.22225C17.2492 6.63288 17.0122 6.06764 16.5903 5.65088C16.1685 5.23413 15.5963 5 14.9997 5C14.4031 5 13.831 5.23413 13.4091 5.65088C12.9873 6.06764 12.7503 6.63288 12.7503 7.22225Z"
        stroke="#F2F5FF" stroke-width="2" stroke-linecap="round" stroke-linejoin="round" />
    <path
        d="M14.9999 9.44458V16.1113M6.48692 15.2402L12.8236 12.6491C14.2174 12.0805 15.7824 12.0805 17.1762 12.6491L23.5128 15.2402C23.6532 15.2969 23.7738 15.3928 23.8597 15.5163C23.9456 15.6397 23.9932 15.7853 23.9965 15.935C23.9999 16.0848 23.9589 16.2323 23.8785 16.3593C23.7982 16.4864 23.682 16.5875 23.5443 16.6502L17.4011 19.4758C16.649 19.8216 15.8295 20.0008 14.9999 20.0008C14.1703 20.0008 13.3507 19.8216 12.5986 19.4758L6.45543 16.6502C6.31696 16.588 6.20003 16.487 6.1191 16.3598C6.03818 16.2326 5.99684 16.0847 6.00019 15.9344C6.00354 15.7842 6.05145 15.6382 6.13797 15.5146C6.22449 15.391 6.34582 15.2963 6.48692 15.2402Z"
        stroke="#F2F5FF" stroke-width="2" stroke-linecap="round" stroke-linejoin="round" />
</svg>
    