<svg width="30" height="30" viewBox="0 0 30 30" fill="none" xmlns="http://www.w3.org/2000/svg">
    <path
        d="M7.3 21.8083V25.9999L8.9665 24.9882L14.2047 21.8083H19.4C20.6133 21.8083 21.6 20.8099 21.6 19.5822V10.6781C21.6 9.45041 20.6133 8.45203 19.4 8.45203H6.2C4.9867 8.45203 4 9.45041 4 10.6781V19.5822C4 20.8099 4.9867 21.8083 6.2 21.8083H7.3ZM6.2 10.6781H19.4V19.5822H13.5953L9.5 22.0687V19.5822H6.2V10.6781Z"
        fill="#F2F5FF" />
    <path
        d="M23.8004 4H10.6004C9.38709 4 8.40039 4.99838 8.40039 6.22604H21.6004C22.8137 6.22604 23.8004 7.22443 23.8004 8.45209V17.3563C25.0137 17.3563 26.0004 16.3579 26.0004 15.1302V6.22604C26.0004 4.99838 25.0137 4 23.8004 4Z"
        fill="#F2F5FF" />
</svg>
    