<svg width="30" height="30" viewBox="0 0 30 30" fill="none" xmlns="http://www.w3.org/2000/svg">
    <path fill-rule="evenodd" clip-rule="evenodd"
        d="M4 3C3.44772 3 3 3.44772 3 4C3 4.55228 3.44772 5 4 5H6.57143L7.25661 7.60985L8.94334 16.0423L9.6542 19.5961L9.65499 19.6C9.74013 20.0171 9.96675 20.3918 10.2965 20.661C10.6261 20.93 11.0386 21.077 11.4641 21.0769H11.4643H21.7717C22.324 21.0769 22.7717 20.6292 22.7717 20.0769C22.7717 19.5246 22.324 19.0769 21.7717 19.0769H11.59L11.1437 16.8462H23.7635C24.1983 16.8501 24.6203 16.699 24.9539 16.4199C25.2837 16.144 25.5056 15.7609 25.581 15.3381L26.9658 8.58393L26.9698 8.56311C27.0185 8.29747 27.0082 8.02442 26.9398 7.76319C26.8714 7.50197 26.7465 7.25892 26.574 7.0512C26.4015 6.84348 26.1855 6.67615 25.9412 6.56098C25.697 6.44581 25.4305 6.38561 25.1605 6.38462H25.1568H9.00272L8.4934 4.44462C8.40336 4.04055 8.18 3.67813 7.85881 3.41597C7.52914 3.14689 7.11666 2.99996 6.69115 3H6.69094H4ZM10.7437 14.8462L9.4512 8.38461H24.9651L23.6403 14.8462H10.7437ZM20.9252 23.3077C20.4356 23.3077 19.966 23.5022 19.6198 23.8484C19.2735 24.1946 19.0789 24.6642 19.0789 25.1538C19.0789 25.6435 19.2735 26.1131 19.6198 26.4593C19.966 26.8055 20.4356 27 20.9252 27C21.4148 27 21.8844 26.8055 22.2307 26.4593C22.5769 26.1131 22.7715 25.6435 22.7715 25.1538C22.7715 24.6642 22.5769 24.1946 22.2307 23.8484C21.8844 23.5022 21.4148 23.3077 20.9252 23.3077ZM21.7715 25.1538C21.7715 25.3783 21.6823 25.5935 21.5236 25.7522C21.3649 25.9109 21.1497 26 20.9252 26C20.7008 26 20.4855 25.9109 20.3268 25.7522C20.1681 25.5935 20.0789 25.3783 20.0789 25.1538C20.0789 24.9294 20.1681 24.7142 20.3268 24.5555C20.4855 24.3968 20.7008 24.3077 20.9252 24.3077C21.1497 24.3077 21.3649 24.3968 21.5236 24.5555C21.6823 24.7142 21.7715 24.9294 21.7715 25.1538ZM11.157 26.4593C11.5033 26.8055 11.9729 27 12.4625 27C12.9521 27 13.4217 26.8055 13.7679 26.4593C14.1142 26.1131 14.3088 25.6435 14.3088 25.1538C14.3088 24.6642 14.1142 24.1946 13.7679 23.8484C13.4217 23.5022 12.9521 23.3077 12.4625 23.3077C11.9729 23.3077 11.5033 23.5022 11.157 23.8484C10.8108 24.1946 10.6162 24.6642 10.6162 25.1538C10.6162 25.6435 10.8108 26.1131 11.157 26.4593ZM11.8641 25.7522C12.0228 25.9109 12.238 26 12.4625 26C12.6869 26 12.9022 25.9109 13.0609 25.7522C13.2196 25.5935 13.3088 25.3783 13.3088 25.1538C13.3088 24.9294 13.2196 24.7142 13.0609 24.5555C12.9022 24.3968 12.6869 24.3077 12.4625 24.3077C12.238 24.3077 12.0228 24.3968 11.8641 24.5555C11.7054 24.7142 11.6162 24.9294 11.6162 25.1538C11.6162 25.3783 11.7054 25.5935 11.8641 25.7522Z"
        fill="#F2F5FF" />
</svg>
    