<svg width="30" height="30" viewBox="0 0 30 30" fill="none" xmlns="http://www.w3.org/2000/svg">
    <path
        d="M23 12.5236L24 12.5236V12.5236H23ZM8 12.5236H7V12.5236L8 12.5236ZM17.586 25.2584L17.0111 24.4402L17.586 25.2584ZM18.022 24.2728L19.0204 24.3284L18.022 24.2728ZM17.9905 24.642L17.0111 24.4402L17.9905 24.642ZM12.978 24.2728L13.9765 24.2171L12.978 24.2728ZM13.0095 24.642L13.9889 24.4402L13.0095 24.642ZM13.414 25.2584L12.8392 26.0767L13.414 25.2584ZM19.1292 19.5129L18.2087 19.1222L19.1292 19.5129ZM19.8741 18.6358L20.4591 19.4468L19.8741 18.6358ZM19.3669 19.0471L20.1484 19.671L19.3669 19.0471ZM11.1259 18.6358L11.711 17.8249L11.1259 18.6358ZM11.8708 19.5129L10.9503 19.9037L11.8708 19.5129ZM11.6331 19.0471L12.4147 18.4233L11.6331 19.0471ZM22 12.5236C22 12.5236 22 12.5236 22 12.5236C22 12.5236 22 12.5236 22 12.5236V12.5236V12.5236V12.5236V12.5236V12.5236V12.5236V12.5236C22 12.5236 22 12.5236 22 12.5236C22 12.5236 22 12.5236 22 12.5236C22 12.5236 22 12.5236 22 12.5236C22 12.5236 22 12.5236 22 12.5236C22 12.5236 22 12.5236 22 12.5236V12.5236C22 12.5236 22 12.5236 22 12.5236C22 12.5236 22 12.5236 22 12.5236C22 12.5236 22 12.5236 22 12.5236C22 12.5236 22 12.5236 22 12.5236V12.5236C22 12.5236 22 12.5236 22 12.5236C22 12.5236 22 12.5236 22 12.5236C22 12.5236 22 12.5236 22 12.5236V12.5236C22 12.5236 22 12.5236 22 12.5236C22 12.5236 22 12.5236 22 12.5236C22 12.5236 22 12.5236 22 12.5236C22 12.5236 22 12.5236 22 12.5236V12.5236C22 12.5236 22 12.5236 22 12.5236C22 12.5236 22 12.5236 22 12.5236C22 12.5236 22 12.5236 22 12.5236C22 12.5236 22 12.5236 22 12.5236C22 12.5236 22 12.5236 22 12.5236V12.5236V12.5236V12.5236V12.5236V12.5236V12.5236V12.5236C22 12.5236 22 12.5236 22 12.5236C22 12.5236 22 12.5236 22 12.5236H24C24 12.5236 24 12.5236 24 12.5236C24 12.5236 24 12.5236 24 12.5236V12.5236V12.5236V12.5236V12.5236V12.5236V12.5236V12.5236C24 12.5236 24 12.5236 24 12.5236C24 12.5236 24 12.5236 24 12.5236C24 12.5236 24 12.5236 24 12.5236C24 12.5236 24 12.5236 24 12.5236C24 12.5236 24 12.5236 24 12.5236V12.5236C24 12.5236 24 12.5236 24 12.5236C24 12.5236 24 12.5236 24 12.5236C24 12.5236 24 12.5236 24 12.5236C24 12.5236 24 12.5236 24 12.5236V12.5236C24 12.5236 24 12.5236 24 12.5236C24 12.5236 24 12.5236 24 12.5236C24 12.5236 24 12.5236 24 12.5236V12.5236C24 12.5236 24 12.5236 24 12.5236C24 12.5236 24 12.5236 24 12.5236C24 12.5236 24 12.5236 24 12.5236C24 12.5236 24 12.5236 24 12.5236V12.5236C24 12.5236 24 12.5236 24 12.5236C24 12.5236 24 12.5236 24 12.5236C24 12.5236 24 12.5236 24 12.5236C24 12.5236 24 12.5236 24 12.5236C24 12.5236 24 12.5236 24 12.5236V12.5236V12.5236V12.5236V12.5236V12.5236V12.5236V12.5236C24 12.5236 24 12.5236 24 12.5236C24 12.5236 24 12.5236 24 12.5236H22ZM15.5 6C19.0869 6 22 8.91775 22 12.5236H24C24 7.8191 20.1974 4 15.5 4V6ZM9 12.5236C9 8.91775 11.9131 6 15.5 6V4C10.8026 4 7 7.8191 7 12.5236H9ZM9 12.5236C9 12.5236 9 12.5236 9 12.5236C9 12.5236 9 12.5236 9 12.5236V12.5236V12.5236V12.5236V12.5236V12.5236V12.5236V12.5236C9 12.5236 9 12.5236 9 12.5236C9 12.5236 9 12.5236 9 12.5236C9 12.5236 9 12.5236 9 12.5236C9 12.5236 9 12.5236 9 12.5236C9 12.5236 9 12.5236 9 12.5236V12.5236C9 12.5236 9 12.5236 9 12.5236C9 12.5236 9 12.5236 9 12.5236C9 12.5236 9 12.5236 9 12.5236C9 12.5236 9 12.5236 9 12.5236V12.5236C9 12.5236 9 12.5236 9 12.5236C9 12.5236 9 12.5236 9 12.5236C9 12.5236 9 12.5236 9 12.5236V12.5236C9 12.5236 9 12.5236 9 12.5236C9 12.5236 9 12.5236 9 12.5236C9 12.5236 9 12.5236 9 12.5236C9 12.5236 9 12.5236 9 12.5236V12.5236C9 12.5236 9 12.5236 9 12.5236C9 12.5236 9 12.5236 9 12.5236C9 12.5236 9 12.5236 9 12.5236C9 12.5236 9 12.5236 9 12.5236C9 12.5236 9 12.5236 9 12.5236V12.5236V12.5236V12.5236V12.5236V12.5236V12.5236V12.5236C9 12.5236 9 12.5236 9 12.5236C9 12.5236 9 12.5236 9 12.5236H7C7 12.5236 7 12.5236 7 12.5236C7 12.5236 7 12.5236 7 12.5236V12.5236V12.5236V12.5236V12.5236V12.5236V12.5236V12.5236C7 12.5236 7 12.5236 7 12.5236C7 12.5236 7 12.5236 7 12.5236C7 12.5236 7 12.5236 7 12.5236C7 12.5236 7 12.5236 7 12.5236C7 12.5236 7 12.5236 7 12.5236V12.5236C7 12.5236 7 12.5236 7 12.5236C7 12.5236 7 12.5236 7 12.5236C7 12.5236 7 12.5236 7 12.5236C7 12.5236 7 12.5236 7 12.5236V12.5236C7 12.5236 7 12.5236 7 12.5236C7 12.5236 7 12.5236 7 12.5236C7 12.5236 7 12.5236 7 12.5236V12.5236C7 12.5236 7 12.5236 7 12.5236C7 12.5236 7 12.5236 7 12.5236C7 12.5236 7 12.5236 7 12.5236C7 12.5236 7 12.5236 7 12.5236V12.5236C7 12.5236 7 12.5236 7 12.5236C7 12.5236 7 12.5236 7 12.5236C7 12.5236 7 12.5236 7 12.5236C7 12.5236 7 12.5236 7 12.5236C7 12.5236 7 12.5236 7 12.5236V12.5236V12.5236V12.5236V12.5236V12.5236V12.5236V12.5236C7 12.5236 7 12.5236 7 12.5236C7 12.5236 7 12.5236 7 12.5236H9ZM11.711 17.8249C10.0679 16.6395 9.00001 14.7072 9 12.5236L7 12.5236C7.00001 15.3754 8.39774 17.9008 10.5409 19.4468L11.711 17.8249ZM13.9765 24.2171C13.8786 22.4609 13.4768 20.7371 12.7913 19.1222L10.9503 19.9037C11.5457 21.3062 11.8946 22.8032 11.9796 24.3284L13.9765 24.2171ZM16.845 24.5235C15.9986 24.948 15.0014 24.948 14.155 24.5235L13.2583 26.3112C14.669 27.0188 16.331 27.0188 17.7417 26.3112L16.845 24.5235ZM18.2087 19.1222C17.5232 20.7371 17.1214 22.4609 17.0235 24.2171L19.0204 24.3284C19.1054 22.8032 19.4543 21.3062 20.0497 19.9037L18.2087 19.1222ZM22 12.5236C22 14.7072 20.9321 16.6395 19.289 17.8249L20.4591 19.4468C22.6023 17.9008 24 15.3754 24 12.5236L22 12.5236ZM17.7417 26.3112C17.8647 26.2495 18.0247 26.1723 18.1608 26.0767L17.0111 24.4402C17.028 24.4283 17.0332 24.427 17.0037 24.4428C16.9715 24.46 16.927 24.4824 16.845 24.5235L17.7417 26.3112ZM17.0235 24.2171C17.0178 24.3208 17.0143 24.3815 17.0108 24.4257C17.0073 24.4704 17.006 24.4648 17.0111 24.4402L18.97 24.8438C19.0038 24.6796 19.0117 24.4847 19.0204 24.3284L17.0235 24.2171ZM18.1608 26.0767C18.5891 25.7758 18.8644 25.3564 18.97 24.8438L17.0111 24.4402C17.0086 24.4524 17.0067 24.4567 17.0073 24.4552C17.008 24.4534 17.0102 24.4485 17.0143 24.4423C17.0184 24.4361 17.022 24.4321 17.0233 24.4307C17.0245 24.4296 17.0214 24.433 17.0111 24.4402L18.1608 26.0767ZM11.9796 24.3284C11.9883 24.4847 11.9962 24.6796 12.03 24.8438L13.9889 24.4402C13.994 24.4648 13.9927 24.4704 13.9892 24.4257C13.9857 24.3815 13.9822 24.3208 13.9765 24.2171L11.9796 24.3284ZM14.155 24.5235C14.073 24.4824 14.0285 24.46 13.9963 24.4428C13.9668 24.427 13.972 24.4283 13.9889 24.4402L12.8392 26.0767C12.9753 26.1723 13.1353 26.2495 13.2583 26.3112L14.155 24.5235ZM12.03 24.8438C12.1356 25.3564 12.4109 25.7758 12.8392 26.0767L13.9889 24.4402C13.9786 24.433 13.9755 24.4296 13.9767 24.4307C13.978 24.4321 13.9816 24.4361 13.9857 24.4423C13.9898 24.4485 13.992 24.4534 13.9927 24.4552C13.9933 24.4567 13.9914 24.4524 13.9889 24.4402L12.03 24.8438ZM20.0497 19.9037C20.0757 19.8424 20.0955 19.7957 20.1131 19.7554C20.1306 19.7155 20.1424 19.6901 20.151 19.6725C20.1659 19.6425 20.1634 19.6522 20.1484 19.671L18.5853 18.4233C18.3958 18.6607 18.2917 18.9266 18.2087 19.1222L20.0497 19.9037ZM19.289 17.8249C19.0672 17.9848 18.7785 18.1813 18.5853 18.4233L20.1484 19.671C20.1217 19.7044 20.1101 19.7071 20.1677 19.6615C20.2271 19.6145 20.3112 19.5536 20.4591 19.4468L19.289 17.8249ZM10.5409 19.4468C10.6888 19.5536 10.7729 19.6145 10.8323 19.6615C10.8899 19.7071 10.8783 19.7044 10.8516 19.671L12.4147 18.4233C12.2215 18.1813 11.9327 17.9848 11.711 17.8249L10.5409 19.4468ZM12.7913 19.1222C12.7083 18.9266 12.6042 18.6607 12.4147 18.4233L10.8516 19.671C10.8366 19.6522 10.8341 19.6425 10.849 19.6725C10.8576 19.6901 10.8694 19.7155 10.8869 19.7554C10.9045 19.7957 10.9243 19.8424 10.9503 19.9037L12.7913 19.1222Z"
        fill="#F9FAFD" />
    <path d="M19.24 20.0471V20.0471C16.9774 21.5643 14.0224 21.5643 11.7598 20.0471V20.0471"
        stroke="#F9FAFD" stroke-width="2" />
</svg>
    