<svg width="30" height="30" viewBox="0 0 30 30" fill="none" xmlns="http://www.w3.org/2000/svg">
    <path
        d="M13.75 13.125H14.5C14.7761 13.125 15 13.3489 15 13.625V18.875C15 19.1511 15.2239 19.375 15.5 19.375H16.25M15 10.625H15.0125"
        stroke="#F2F5FF" stroke-width="1.5" stroke-linecap="round" stroke-linejoin="round" />
    <path
        d="M16.7365 24.8481C18.0297 24.62 19.2654 24.1395 20.373 23.4339C21.4806 22.7283 22.4383 21.8115 23.1915 20.7358C23.9448 19.66 24.4787 18.4465 24.763 17.1644C25.0472 15.8823 25.0761 14.5568 24.8481 13.2635C24.62 11.9702 24.1395 10.7346 23.4339 9.627C22.7283 8.51945 21.8115 7.56171 20.7358 6.80848C19.66 6.05525 18.4465 5.52127 17.1644 5.23704C15.8823 4.95281 14.5568 4.92388 13.2635 5.15192C11.9702 5.37996 10.7346 5.86049 9.627 6.56609C8.51945 7.27168 7.56171 8.18851 6.80848 9.26424C6.05525 10.34 5.52127 11.5535 5.23704 12.8356C4.95281 14.1177 4.92388 15.4432 5.15192 16.7365C5.37996 18.0298 5.86049 19.2654 6.56609 20.373C7.27168 21.4806 8.18851 22.4383 9.26424 23.1915C10.34 23.9448 11.5535 24.4787 12.8356 24.763C14.1177 25.0472 15.4432 25.0761 16.7365 24.8481L16.7365 24.8481Z"
        stroke="#F2F5FF" stroke-width="2" />
</svg>
    