<svg width="30" height="30" viewBox="0 0 30 30" fill="none" xmlns="http://www.w3.org/2000/svg">
    <path
        d="M6 8.69444V8.69444C6 7.23702 7.18147 6.05555 8.63889 6.05555L23.1905 6.05555C23.4272 6.05555 23.5455 6.05555 23.6387 6.09481C23.7589 6.14548 23.8545 6.24112 23.9052 6.36133C23.9444 6.45447 23.9444 6.57282 23.9444 6.80952V6.80952C23.9444 8.2297 23.9444 8.93979 23.7089 9.49863C23.4048 10.2199 22.831 10.7937 22.1098 11.0978C21.5509 11.3333 20.8408 11.3333 19.4206 11.3333H18.6667M6 8.69444V8.69444C6 10.1519 7.18147 11.3333 8.63889 11.3333L23 11.3333C23.9428 11.3333 24.4142 11.3333 24.7071 11.6262C25 11.9191 25 12.3905 25 13.3333L25 15.5556M6 8.69444L6 20C6 21.8856 6 22.8284 6.58579 23.4142C7.17157 24 8.11438 24 10 24L23 24C23.9428 24 24.4142 24 24.7071 23.7071C25 23.4142 25 22.9428 25 22L25 19.7778M25 19.7778H20.6667C19.7239 19.7778 19.2525 19.7778 18.9596 19.4849C18.6667 19.192 18.6667 18.7206 18.6667 17.7778V17.5556C18.6667 16.6127 18.6667 16.1413 18.9596 15.8484C19.2525 15.5556 19.7239 15.5556 20.6667 15.5556H25M25 19.7778L25 15.5556"
        stroke="#F2F5FF" stroke-width="2" />
</svg>
    