<svg width="64" height="60" viewBox="0 0 64 60" fill="none" xmlns="http://www.w3.org/2000/svg">
    <path
        d="M32 40C26.477 40 22 35.523 22 30C22 24.477 26.477 20 32 20C37.523 20 42 24.477 42 30C42 35.523 37.523 40 32 40ZM29.71 37.667C28.7234 35.5743 28.1519 33.3102 28.027 31H24.062C24.2566 32.5389 24.8939 33.9882 25.8966 35.1717C26.8992 36.3552 28.224 37.2221 29.71 37.667ZM30.03 31C30.181 33.439 30.878 35.73 32 37.752C33.1523 35.6766 33.8254 33.3695 33.97 31H30.03ZM39.938 31H35.973C35.8481 33.3102 35.2766 35.5743 34.29 37.667C35.776 37.2221 37.1008 36.3552 38.1034 35.1717C39.1061 33.9882 39.7434 32.5389 39.938 31ZM24.062 29H28.027C28.1519 26.6898 28.7234 24.4257 29.71 22.333C28.224 22.7779 26.8992 23.6448 25.8966 24.8283C24.8939 26.0118 24.2566 27.4611 24.062 29ZM30.031 29H33.969C33.8248 26.6306 33.152 24.3235 32 22.248C30.8477 24.3234 30.1746 26.6305 30.03 29M34.289 22.333C35.2759 24.4256 35.8478 26.6897 35.973 29H39.938C39.7434 27.4611 39.1061 26.0118 38.1034 24.8283C37.1008 23.6448 35.776 22.7779 34.29 22.333"
        fill="#F2F5FF" />
</svg>
    