<svg width="64" height="60" viewBox="0 0 64 60" fill="none" xmlns="http://www.w3.org/2000/svg">
    <path fill-rule="evenodd" clip-rule="evenodd"
        d="M22 22.0001C22 21.4478 22.4477 21.0001 23 21.0001L25.2039 21.0001C25.2039 21.0001 25.204 21.0001 25.2041 21.0001C25.5817 21.0001 25.9536 21.124 26.2564 21.3596C26.5512 21.5888 26.7652 21.9126 26.8533 22.2842L27.2273 23.6416H40.3276H40.3311C40.5713 23.6424 40.81 23.6934 41.0306 23.7925C41.2513 23.8917 41.4505 24.0376 41.612 24.2229C41.7738 24.4085 41.8936 24.6289 41.9598 24.8697C42.026 25.1107 42.0361 25.3636 41.9889 25.6094L41.9844 25.6311L40.851 30.899C40.777 31.2901 40.563 31.6342 40.2592 31.8763C39.9523 32.121 39.5716 32.2483 39.1858 32.2452H29.0834L29.3567 33.5469H37.5552C38.1074 33.5469 38.5552 33.9947 38.5552 34.5469C38.5552 35.0992 38.1074 35.5469 37.5552 35.5469H29.1134C29.1133 35.5469 29.1132 35.5469 29.1132 35.5469C28.7356 35.547 28.3637 35.4231 28.0608 35.1875C27.7569 34.9512 27.5389 34.6143 27.4561 34.2282L27.4553 34.2241L27.4553 34.2241L26.8731 31.4506L25.4932 24.8773L24.976 23.0001H23C22.4477 23.0001 22 22.5524 22 22.0001ZM27.6972 25.6416L28.6636 30.2452H38.9459L39.9364 25.6416H27.6972Z"
        fill="#F2F5FF" />
    <path
        d="M28.7887 39.2494L29.1336 38.8874L28.7887 39.2494C29.0259 39.4754 29.3427 39.5984 29.6682 39.5984C29.9938 39.5984 30.3106 39.4754 30.5478 39.2494C30.7858 39.0226 30.9243 38.7097 30.9243 38.378C30.9243 38.0463 30.7858 37.7334 30.5478 37.5066C30.3106 37.2806 29.9938 37.1576 29.6682 37.1576C29.3427 37.1576 29.0259 37.2806 28.7887 37.5066C28.5506 37.7334 28.4121 38.0463 28.4121 38.378C28.4121 38.7097 28.5506 39.0226 28.7887 39.2494ZM38.1089 39.2494L37.7671 38.8906L38.1089 39.2494C38.3469 39.0226 38.4855 38.7097 38.4855 38.378C38.4855 38.0463 38.3469 37.7334 38.1089 37.5066L37.764 37.8686L38.1089 37.5066C37.8717 37.2806 37.5549 37.1576 37.2293 37.1576C36.9038 37.1576 36.587 37.2806 36.3498 37.5066C36.1118 37.7334 35.9732 38.0463 35.9732 38.378C35.9732 38.7097 36.1118 39.0226 36.3498 39.2494C36.587 39.4754 36.9038 39.5984 37.2293 39.5984C37.5549 39.5984 37.8717 39.4754 38.1089 39.2494Z"
        stroke="#F9FAFD" stroke-linecap="round" stroke-linejoin="round" />
</svg>
    