<svg width="31" height="30" viewBox="0 0 31 30" fill="none" xmlns="http://www.w3.org/2000/svg">
    <rect x="1.5" y="1" width="28" height="28" rx="14" stroke="#2EA9E5" stroke-width="2" />
    <path
        d="M22.408 20.7679C21.5193 19.1512 20.1316 17.8914 18.4683 17.1915C19.2955 16.5484 19.9064 15.6519 20.2147 14.6289C20.523 13.6059 20.5129 12.5083 20.186 11.4916C19.859 10.4749 19.2318 9.59052 18.393 8.96387C17.5543 8.33721 16.5465 8 15.5126 8C14.4787 8 13.471 8.33721 12.6323 8.96387C11.7935 9.59052 11.1662 10.4749 10.8393 11.4916C10.5123 12.5083 10.5023 13.6059 10.8106 14.6289C11.1188 15.6519 11.7298 16.5484 12.5569 17.1915C10.8937 17.8914 9.50599 19.1512 8.61731 20.7679C8.56225 20.8597 8.52555 20.962 8.50939 21.0688C8.49324 21.1756 8.49796 21.2847 8.52328 21.3895C8.54859 21.4943 8.59399 21.5929 8.65677 21.6792C8.71954 21.7655 8.79842 21.8378 8.8887 21.8919C8.97899 21.9459 9.07884 21.9806 9.18232 21.9939C9.2858 22.0072 9.3908 21.9987 9.49107 21.9691C9.59134 21.9395 9.68485 21.8892 9.76602 21.8214C9.84719 21.7536 9.91438 21.6695 9.96358 21.5742C11.1381 19.4698 13.2122 18.2147 15.5126 18.2147C17.813 18.2147 19.8872 19.4705 21.0617 21.5742C21.1683 21.7519 21.3375 21.8797 21.5333 21.9305C21.7292 21.9814 21.9365 21.9512 22.1113 21.8465C22.2861 21.7418 22.4148 21.5707 22.4702 21.3695C22.5256 21.1682 22.5032 20.9525 22.408 20.7679ZM12.1421 13.1084C12.1421 12.4174 12.3398 11.7419 12.7101 11.1673C13.0805 10.5928 13.6069 10.1449 14.2228 9.8805C14.8387 9.61606 15.5164 9.54688 16.1702 9.68169C16.824 9.8165 17.4246 10.1493 17.896 10.6379C18.3673 11.1265 18.6883 11.749 18.8184 12.4268C18.9484 13.1045 18.8817 13.807 18.6266 14.4454C18.3715 15.0838 17.9395 15.6295 17.3852 16.0134C16.8309 16.3973 16.1793 16.6022 15.5126 16.6022C14.619 16.6011 13.7623 16.2327 13.1304 15.5777C12.4986 14.9227 12.1431 14.0347 12.1421 13.1084Z"
        fill="#F2F5FF" />
</svg>
    