<svg width="25" height="24" viewBox="0 0 25 24" fill="none" xmlns="http://www.w3.org/2000/svg">
    <path
        d="M19.6991 12.4446V16.6668C19.7061 16.7657 19.6892 16.8647 19.6496 16.9557C19.5899 17.0989 19.4782 17.2149 19.3365 17.2811L14.422 19.5744C13.8213 19.8547 13.1652 20 12.501 20C11.8367 20 11.1806 19.8547 10.5799 19.5744L5.6654 17.2811C5.54942 17.2268 5.45285 17.139 5.38843 17.0293C5.32401 16.9197 5.29478 16.7933 5.30459 16.6668V12.4446M10.7014 5.7778C10.7014 6.24931 10.891 6.7015 11.2285 7.0349C11.566 7.3683 12.0237 7.55561 12.501 7.55561C12.9782 7.55561 13.4359 7.3683 13.7734 7.0349C14.1109 6.7015 14.3005 6.24931 14.3005 5.7778C14.3005 5.3063 14.1109 4.85411 13.7734 4.52071C13.4359 4.1873 12.9782 4 12.501 4C12.0237 4 11.566 4.1873 11.2285 4.52071C10.891 4.85411 10.7014 5.3063 10.7014 5.7778Z"
        stroke="#F2F5FF" stroke-width="1.4" stroke-linecap="round" stroke-linejoin="round" />
    <path
        d="M12.5007 7.55566V12.8891M5.69032 12.1922L10.7596 10.1193C11.8747 9.6644 13.1267 9.6644 14.2417 10.1193L19.311 12.1922C19.4233 12.2375 19.5198 12.3143 19.5885 12.413C19.6573 12.5118 19.6953 12.6282 19.698 12.748C19.7007 12.8678 19.6679 12.9858 19.6036 13.0875C19.5393 13.1891 19.4464 13.27 19.3362 13.3202L14.4217 15.5807C13.82 15.8573 13.1643 16.0007 12.5007 16.0007C11.837 16.0007 11.1814 15.8573 10.5797 15.5807L5.66512 13.3202C5.55435 13.2704 5.4608 13.1896 5.39606 13.0878C5.33133 12.986 5.29825 12.8677 5.30093 12.7475C5.30361 12.6273 5.34194 12.5106 5.41115 12.4117C5.48037 12.3128 5.57743 12.2371 5.69032 12.1922Z"
        stroke="#F2F5FF" stroke-width="1.4" stroke-linecap="round" stroke-linejoin="round" />
</svg>
    