<svg width="25" height="24" viewBox="0 0 25 24" fill="none" xmlns="http://www.w3.org/2000/svg">
    <path
        d="M19.908 17.7679C19.0193 16.1512 17.6316 14.8914 15.9683 14.1915C16.7955 13.5484 17.4064 12.6519 17.7147 11.6289C18.023 10.6059 18.0129 9.50833 17.686 8.49159C17.359 7.47485 16.7318 6.59052 15.893 5.96387C15.0543 5.33721 14.0465 5 13.0126 5C11.9787 5 10.971 5.33721 10.1323 5.96387C9.29351 6.59052 8.66622 7.47485 8.33927 8.49159C8.01232 9.50833 8.00227 10.6059 8.31055 11.6289C8.61883 12.6519 9.22981 13.5484 10.0569 14.1915C8.39366 14.8914 7.00599 16.1512 6.11731 17.7679C6.06225 17.8597 6.02555 17.962 6.00939 18.0688C5.99324 18.1756 5.99796 18.2847 6.02328 18.3895C6.04859 18.4943 6.09399 18.5929 6.15677 18.6792C6.21954 18.7655 6.29842 18.8378 6.3887 18.8919C6.47899 18.9459 6.57884 18.9806 6.68232 18.9939C6.7858 19.0072 6.8908 18.9987 6.99107 18.9691C7.09134 18.9395 7.18485 18.8892 7.26602 18.8214C7.34719 18.7536 7.41438 18.6695 7.46358 18.5742C8.63808 16.4698 10.7122 15.2147 13.0126 15.2147C15.313 15.2147 17.3872 16.4705 18.5617 18.5742C18.6683 18.7519 18.8375 18.8797 19.0333 18.9305C19.2292 18.9814 19.4365 18.9512 19.6113 18.8465C19.7861 18.7418 19.9148 18.5707 19.9702 18.3695C20.0256 18.1682 20.0032 17.9525 19.908 17.7679ZM9.64211 10.1084C9.64211 9.41737 9.83978 8.74187 10.2101 8.16731C10.5805 7.59276 11.1069 7.14494 11.7228 6.8805C12.3387 6.61606 13.0164 6.54688 13.6702 6.68169C14.324 6.8165 14.9246 7.14925 15.396 7.63787C15.8673 8.12649 16.1883 8.74903 16.3184 9.42677C16.4484 10.1045 16.3817 10.807 16.1266 11.4454C15.8715 12.0838 15.4395 12.6295 14.8852 13.0134C14.3309 13.3973 13.6793 13.6022 13.0126 13.6022C12.119 13.6011 11.2623 13.2327 10.6304 12.5777C9.99857 11.9227 9.64314 11.0347 9.64211 10.1084Z"
        fill="#F2F5FF" />
</svg>
    