<svg width="25" height="24" viewBox="0 0 25 24" fill="none" xmlns="http://www.w3.org/2000/svg">
    <path d="M12.5003 14.0571L11.7932 14.7642L12.5003 15.4713L13.2074 14.7642L12.5003 14.0571ZM13.5003 4.79999C13.5003 4.2477 13.0526 3.79999 12.5003 3.79999C11.948 3.79999 11.5003 4.2477 11.5003 4.79999L13.5003 4.79999ZM6.65032 9.62138L11.7932 14.7642L13.2074 13.35L8.06453 8.20717L6.65032 9.62138ZM13.2074 14.7642L18.3502 9.62138L16.936 8.20717L11.7932 13.35L13.2074 14.7642ZM13.5003 14.0571L13.5003 4.79999L11.5003 4.79999L11.5003 14.0571L13.5003 14.0571Z" fill="#F2F5FF"/>
    <path d="M5.30078 16.1143L5.30078 17.1428C5.30078 18.279 6.2218 19.2 7.35792 19.2L17.6436 19.2C18.7798 19.2 19.7008 18.279 19.7008 17.1428V16.1143" stroke="#F2F5FF" stroke-width="2" stroke-linecap="round"/>
    </svg>
    