<svg width="25" height="24" viewBox="0 0 25 24" fill="none" xmlns="http://www.w3.org/2000/svg">
    <path d="M17.89 2C18.1882 1.99985 18.4759 2.10506 18.698 2.29544C18.9201 2.48581 19.0609 2.74796 19.0934 3.03158L19.1 3.15789V6.21053H20.2C21.0417 6.21048 21.8517 6.51824 22.4641 7.07083C23.0765 7.62341 23.4451 8.37906 23.4945 9.18316L23.5 9.36842V16.7368C23.5002 17.268 23.2906 17.7795 22.9132 18.169C22.5358 18.5585 22.0185 18.797 21.465 18.8368L21.3 18.8421H19.1V20.8421C19.1002 21.1274 18.9902 21.4028 18.7913 21.6153C18.5923 21.8278 18.3184 21.9626 18.022 21.9937L17.89 22H7.11C6.81184 22.0001 6.52411 21.8949 6.30203 21.7046C6.07994 21.5142 5.93913 21.252 5.9066 20.9684L5.9 20.8421V18.8421H3.7C3.14497 18.8423 2.61038 18.6417 2.2034 18.2805C1.79642 17.9194 1.54713 17.4244 1.5055 16.8947L1.5 16.7368V9.36842C1.49995 8.56294 1.82156 7.78788 2.39901 7.20183C2.97647 6.61578 3.76612 6.26304 4.6064 6.21579L4.8 6.21053H5.9V3.15789C5.89985 2.87257 6.00979 2.59724 6.20873 2.38472C6.40768 2.17219 6.68162 2.03744 6.978 2.00632L7.11 2H17.89ZM16.9 15.6842H8.1V19.8947H16.9V15.6842ZM20.2 8.31579H4.8C4.53057 8.31582 4.27053 8.41048 4.06919 8.58181C3.86785 8.75313 3.73922 8.98921 3.7077 9.24526L3.7 9.36842V16.7368H5.9V14.7368C5.89985 14.4515 6.00979 14.1762 6.20873 13.9637C6.40768 13.7511 6.68162 13.6164 6.978 13.5853L7.11 13.5789H17.89C18.1882 13.5788 18.4759 13.684 18.698 13.8744C18.9201 14.0648 19.0609 14.3269 19.0934 14.6105L19.1 14.7368V16.7368H21.3V9.36842C21.3 9.08925 21.1841 8.82151 20.9778 8.6241C20.7715 8.42669 20.4917 8.31579 20.2 8.31579ZM18 9.36842C18.2804 9.36872 18.55 9.47145 18.7539 9.65563C18.9578 9.83981 19.0805 10.0915 19.0969 10.3594C19.1133 10.6272 19.0223 10.8909 18.8423 11.0967C18.6624 11.3024 18.4071 11.4346 18.1287 11.4663L18 11.4737H15.8C15.5196 11.4734 15.25 11.3707 15.0461 11.1865C14.8422 11.0023 14.7195 10.7506 14.7031 10.4827C14.6867 10.2149 14.7777 9.95118 14.9577 9.74544C15.1376 9.5397 15.3929 9.40748 15.6713 9.37579L15.8 9.36842H18ZM16.9 4.10526H8.1V6.21053H16.9V4.10526Z" fill="#F2F5FF"/>
    </svg>
    